<svg xmlns="http://www.w3.org/2000/svg" xmlns:xlink="http://www.w3.org/1999/xlink" version="1.1" viewBox="0 0 2430 2314" style="background: #ffffff"><defs joint-selector="defs"></defs><g  joint-selector="layers" transform="matrix(1,0,0,1,0,0)"><g ></g><g >


<!--z-index:-6--><!--z-index:-5--><!--z-index:-4--><!--z-index:-3--><!--z-index:-2--><!--z-index:-1--><!--z-index:0--><!--z-index:1--><!--z-index:2--><!--z-index:3--><!--z-index:4--><!--z-index:5--><!--z-index:6--><!--z-index:7--><!--z-index:8--><!--z-index:9--><!--z-index:10--><!--z-index:11--><!--z-index:12--><!--z-index:13--><!--z-index:14--><!--z-index:15--><!--z-index:16--><g   id="j_16"  transform="translate(1719,160)" style=""><g  id="v-123" style="opacity: 1;"><rect  id="v-124" width="490" height="419" rx="10" ry="10" stroke-width="2" pointer-events="none" stroke="#d6d6d6" stroke-dasharray="" fill="#eeeeee"></rect><text  id="v-125" font-size="33.599999999999994px" xml:space="preserve" y="380" font-weight="bold" text-anchor="start" pointer-events="visible" font-family="Open Sans, Tahoma, Arial" fill="#000000" transform="matrix(1,0,0,1,15,0)"><tspan  dy="0">Database Tier</tspan></text><text  id="v-126" font-size="16.799999999999997px" xml:space="preserve" y="404" font-weight="normal" text-anchor="start" pointer-events="visible" font-family="Open Sans, Tahoma, Arial" fill="#000000" transform="matrix(1,0,0,1,15,0)" style="display: block;"><tspan  dy="0"></tspan></text><text  id="v-127" font-size="40px" xml:space="preserve" display="none" y="404" font-weight="normal" fill="#000000" text-anchor="end" pointer-events="visible" font-family="Open Sans, Tahoma, Arial" transform="matrix(1,0,0,1,475,0)"><tspan style="fill-opacity: 0; stroke-opacity: 0;"  dy="0">-</tspan></text><image  id="v-128" pointer-events="visible"></image></g></g><!--z-index:17--><g   id="j_9"  transform="translate(1739,180)" style=""><g  id="v-79" style="opacity: 1;"><path  d="M 0,30 a 225,30 0,0,0 450 0 a 225,30 0,0,0 -450 0 l 0,240 a 225,30 0,0,0 450 0 l 0,-240" id="v-80" stroke-width="2" pointer-events="visiblePainted" fill="#f3f4f6" stroke="#4c566a" stroke-dasharray=""></path><rect  id="v-81" stroke-width="0" pointer-events="visiblePainted" fill="none" stroke="none" width="450" height="270" x="0" y="30"></rect><text  id="v-82" font-size="33.599999999999994px" xml:space="preserve" y="116.30000000000001" font-weight="bold" text-anchor="middle" pointer-events="visible" font-family="Open Sans, Tahoma, Arial" fill="#2e3440" dominant-baseline="hanging" transform="matrix(1,0,0,1,225,0)"><tspan  dy="0">Database</tspan></text><text  id="v-83" font-size="16.799999999999997px" xml:space="preserve" y="157.9" text-anchor="middle" font-family="Open Sans, Tahoma, Arial" fill="#2e3440" dominant-baseline="hanging" transform="matrix(1,0,0,1,225,0)" style="display: block;"><tspan  dy="0">[Container: SQL Server]</tspan></text><text  id="v-84" font-size="24px" xml:space="preserve" y="189.7" text-anchor="middle" font-family="Open Sans, Tahoma, Arial" fill="#2e3440" dominant-baseline="hanging" transform="matrix(1,0,0,1,225,0)" style="display: block;"><tspan  dy="0">Stores application data.</tspan></text><g  id="v-85" font-weight="normal" text-anchor="middle" color="#2e3440" transform="matrix(1,0,0,1,222.5,268)" display="none"><g ></g><g ></g><g ></g><g ></g></g><image  id="v-86"></image></g></g><!--z-index:18--><g   id="j_13"  transform="translate(199,1536)" style=""><g  id="v-105" style="opacity: 1;"><rect  id="v-106" width="2030" height="538" rx="10" ry="10" stroke-width="2" pointer-events="none" stroke="#2f855a" stroke-dasharray="" fill="#eaf6ec"></rect><text  id="v-107" font-size="33.599999999999994px" xml:space="preserve" y="499" font-weight="bold" text-anchor="start" pointer-events="visible" font-family="Open Sans, Tahoma, Arial" fill="#2e3440" transform="matrix(1,0,0,1,15,0)"><tspan  dy="0">DR</tspan></text><text  id="v-108" font-size="16.799999999999997px" xml:space="preserve" y="523" font-weight="normal" text-anchor="start" pointer-events="visible" font-family="Open Sans, Tahoma, Arial" fill="#2e3440" transform="matrix(1,0,0,1,15,0)" style="display: block;"><tspan  dy="0"></tspan></text><text  id="v-109" font-size="40px" xml:space="preserve" display="none" y="523" font-weight="normal" fill="#2e3440" text-anchor="end" pointer-events="visible" font-family="Open Sans, Tahoma, Arial" transform="matrix(1,0,0,1,2015,0)"><tspan style="fill-opacity: 0; stroke-opacity: 0;"  dy="0">-</tspan></text><image  id="v-110" pointer-events="visible"></image></g></g><!--z-index:19--><g   id="j_14"  transform="translate(219,1556)" style=""><g  id="v-111" style="opacity: 1;"><rect  id="v-112" width="490" height="419" rx="10" ry="10" stroke-width="2" pointer-events="none" stroke="#d6d6d6" stroke-dasharray="" fill="#eeeeee"></rect><text  id="v-113" font-size="33.599999999999994px" xml:space="preserve" y="380" font-weight="bold" text-anchor="start" pointer-events="visible" font-family="Open Sans, Tahoma, Arial" fill="#000000" transform="matrix(1,0,0,1,15,0)"><tspan  dy="0">Workstation Subnet</tspan></text><text  id="v-114" font-size="16.799999999999997px" xml:space="preserve" y="404" font-weight="normal" text-anchor="start" pointer-events="visible" font-family="Open Sans, Tahoma, Arial" fill="#000000" transform="matrix(1,0,0,1,15,0)" style="display: block;"><tspan  dy="0"></tspan></text><text  id="v-115" font-size="40px" xml:space="preserve" display="none" y="404" font-weight="normal" fill="#000000" text-anchor="end" pointer-events="visible" font-family="Open Sans, Tahoma, Arial" transform="matrix(1,0,0,1,475,0)"><tspan style="fill-opacity: 0; stroke-opacity: 0;"  dy="0">-</tspan></text><image  id="v-116" pointer-events="visible"></image></g></g><!--z-index:20--><g   id="j_15"  transform="translate(969,1556)" style=""><g  id="v-117" style="opacity: 1;"><rect  id="v-118" width="1240" height="419" rx="10" ry="10" stroke-width="2" pointer-events="none" stroke="#d6d6d6" stroke-dasharray="" fill="#eeeeee"></rect><text  id="v-119" font-size="33.599999999999994px" xml:space="preserve" y="380" font-weight="bold" text-anchor="start" pointer-events="visible" font-family="Open Sans, Tahoma, Arial" fill="#000000" transform="matrix(1,0,0,1,15,0)"><tspan  dy="0">DR Subnet</tspan></text><text  id="v-120" font-size="16.799999999999997px" xml:space="preserve" y="404" font-weight="normal" text-anchor="start" pointer-events="visible" font-family="Open Sans, Tahoma, Arial" fill="#000000" transform="matrix(1,0,0,1,15,0)" style="display: block;"><tspan  dy="0"></tspan></text><text  id="v-121" font-size="40px" xml:space="preserve" display="none" y="404" font-weight="normal" fill="#000000" text-anchor="end" pointer-events="visible" font-family="Open Sans, Tahoma, Arial" transform="matrix(1,0,0,1,1225,0)"><tspan style="fill-opacity: 0; stroke-opacity: 0;"  dy="0">-</tspan></text><image  id="v-122" pointer-events="visible"></image></g></g><!--z-index:21--><g   id="j_6"  transform="translate(239,1576)" style=""><g  id="v-46" style="opacity: 1;"><rect  id="v-47" rx="1" ry="1" stroke-width="2" pointer-events="visiblePainted" fill="#438dd5" stroke="#3c7fc0" stroke-dasharray="" width="450" height="300"></rect><text  id="v-48" font-size="33.599999999999994px" xml:space="preserve" y="81.14000000000001" font-weight="bold" text-anchor="middle" pointer-events="visible" font-family="Open Sans, Tahoma, Arial" fill="#ffffff" dominant-baseline="hanging" transform="matrix(1,0,0,1,225,0)"><tspan  dy="0">Administration Client</tspan><tspan dy="1.2em" x="0" >(DR)</tspan></text><text  id="v-49" font-size="16.799999999999997px" xml:space="preserve" y="163.06" text-anchor="middle" font-family="Open Sans, Tahoma, Arial" fill="#ffffff" dominant-baseline="hanging" transform="matrix(1,0,0,1,225,0)" style="display: block;"><tspan  dy="0">[Container: .Net]</tspan></text><text  id="v-50" font-size="24px" xml:space="preserve" y="194.86" text-anchor="middle" font-family="Open Sans, Tahoma, Arial" fill="#ffffff" dominant-baseline="hanging" transform="matrix(1,0,0,1,225,0)" style="display: block;"><tspan  dy="0">Provides the user interface.</tspan></text><g  id="v-51" color="#ffffff" transform="matrix(1,0,0,1,222.5,268)" display="none"><g ></g><g ></g><g ></g><g ></g></g><image  id="v-52"></image></g></g><!--z-index:22--><g   id="j_7"  transform="translate(989,1576)" style=""><g  id="v-59" style="opacity: 1;"><rect  id="v-60" rx="1" ry="1" stroke-width="2" pointer-events="visiblePainted" fill="#ffffff" stroke="#2e3440" stroke-dasharray="" width="450" height="300"></rect><text  id="v-61" font-size="33.599999999999994px" xml:space="preserve" y="101.30000000000001" font-weight="bold" text-anchor="middle" pointer-events="visible" font-family="Open Sans, Tahoma, Arial" fill="#2e3440" dominant-baseline="hanging" transform="matrix(1,0,0,1,225,0)"><tspan  dy="0">Obsidian CA Server (DR)</tspan></text><text  id="v-62" font-size="16.799999999999997px" xml:space="preserve" y="142.9" text-anchor="middle" font-family="Open Sans, Tahoma, Arial" fill="#2e3440" dominant-baseline="hanging" transform="matrix(1,0,0,1,225,0)" style="display: block;"><tspan  dy="0">[Container: .Net]</tspan></text><text  id="v-63" font-size="24px" xml:space="preserve" y="174.7" text-anchor="middle" font-family="Open Sans, Tahoma, Arial" fill="#2e3440" dominant-baseline="hanging" transform="matrix(1,0,0,1,225,0)" style="display: block;"><tspan  dy="0">Provides Central control</tspan></text><g  id="v-64" color="#2e3440" transform="matrix(1,0,0,1,222.5,268)" display="none"><g ></g><g ></g><g ></g><g ></g></g><image  id="v-65"></image></g></g><!--z-index:23--><g   id="j_8"  transform="translate(1739,1576)" style=""><g  id="v-69" style="opacity: 1;"><rect  id="v-70" rx="1" ry="1" stroke-width="2" pointer-events="visiblePainted" fill="#438dd5" stroke="#3c7fc0" stroke-dasharray="" width="450" height="300"></rect><text  id="v-71" font-size="33.599999999999994px" xml:space="preserve" y="101.30000000000001" font-weight="bold" text-anchor="middle" pointer-events="visible" font-family="Open Sans, Tahoma, Arial" fill="#ffffff" dominant-baseline="hanging" transform="matrix(1,0,0,1,225,0)"><tspan  dy="0">Entrust XC HSM (DR)</tspan></text><text  id="v-72" font-size="16.799999999999997px" xml:space="preserve" y="142.9" text-anchor="middle" font-family="Open Sans, Tahoma, Arial" fill="#ffffff" dominant-baseline="hanging" transform="matrix(1,0,0,1,225,0)" style="display: block;"><tspan  dy="0">[Container: Native nCore]</tspan></text><text  id="v-73" font-size="24px" xml:space="preserve" y="174.7" text-anchor="middle" font-family="Open Sans, Tahoma, Arial" fill="#ffffff" dominant-baseline="hanging" transform="matrix(1,0,0,1,225,0)" style="display: block;"><tspan  dy="0">Provides Key Security</tspan></text><g  id="v-74" color="#ffffff" transform="matrix(1,0,0,1,222.5,268)" display="none"><g ></g><g ></g><g ></g><g ></g></g><image  id="v-75"></image></g></g><!--z-index:24--><g   id="j_10"  transform="translate(199,786)" style=""><g  id="v-87" style="opacity: 1;"><rect  id="v-88" width="2030" height="538" rx="10" ry="10" stroke-width="2" pointer-events="none" stroke="#2b6cb0" stroke-dasharray="" fill="#e8f0fa"></rect><text  id="v-89" font-size="33.599999999999994px" xml:space="preserve" y="499" font-weight="bold" text-anchor="start" pointer-events="visible" font-family="Open Sans, Tahoma, Arial" fill="#2e3440" transform="matrix(1,0,0,1,15,0)"><tspan  dy="0">Production Main Site</tspan></text><text  id="v-90" font-size="16.799999999999997px" xml:space="preserve" y="523" font-weight="normal" text-anchor="start" pointer-events="visible" font-family="Open Sans, Tahoma, Arial" fill="#2e3440" transform="matrix(1,0,0,1,15,0)" style="display: block;"><tspan  dy="0"></tspan></text><text  id="v-91" font-size="40px" xml:space="preserve" display="none" y="523" font-weight="normal" fill="#2e3440" text-anchor="end" pointer-events="visible" font-family="Open Sans, Tahoma, Arial" transform="matrix(1,0,0,1,2015,0)"><tspan style="fill-opacity: 0; stroke-opacity: 0;"  dy="0">-</tspan></text><image  id="v-92" pointer-events="visible"></image></g></g><!--z-index:25--><g   id="j_11"  transform="translate(219,806)" style=""><g  id="v-93" style="opacity: 1;"><rect  id="v-94" width="490" height="419" rx="10" ry="10" stroke-width="2" pointer-events="none" stroke="#d6d6d6" stroke-dasharray="" fill="#eeeeee"></rect><text  id="v-95" font-size="33.599999999999994px" xml:space="preserve" y="380" font-weight="bold" text-anchor="start" pointer-events="visible" font-family="Open Sans, Tahoma, Arial" fill="#000000" transform="matrix(1,0,0,1,15,0)"><tspan  dy="0">Workstation Subnet</tspan></text><text  id="v-96" font-size="16.799999999999997px" xml:space="preserve" y="404" font-weight="normal" text-anchor="start" pointer-events="visible" font-family="Open Sans, Tahoma, Arial" fill="#000000" transform="matrix(1,0,0,1,15,0)" style="display: block;"><tspan  dy="0"></tspan></text><text  id="v-97" font-size="40px" xml:space="preserve" display="none" y="404" font-weight="normal" fill="#000000" text-anchor="end" pointer-events="visible" font-family="Open Sans, Tahoma, Arial" transform="matrix(1,0,0,1,475,0)"><tspan style="fill-opacity: 0; stroke-opacity: 0;"  dy="0">-</tspan></text><image  id="v-98" pointer-events="visible"></image></g></g><!--z-index:26--><g   id="j_12"  transform="translate(969,806)" style=""><g  id="v-99" style="opacity: 1;"><rect  id="v-100" width="1240" height="419" rx="10" ry="10" stroke-width="2" pointer-events="none" stroke="#d6d6d6" stroke-dasharray="" fill="#eeeeee"></rect><text  id="v-101" font-size="33.599999999999994px" xml:space="preserve" y="380" font-weight="bold" text-anchor="start" pointer-events="visible" font-family="Open Sans, Tahoma, Arial" fill="#000000" transform="matrix(1,0,0,1,15,0)"><tspan  dy="0">Production Subnet</tspan></text><text  id="v-102" font-size="16.799999999999997px" xml:space="preserve" y="404" font-weight="normal" text-anchor="start" pointer-events="visible" font-family="Open Sans, Tahoma, Arial" fill="#000000" transform="matrix(1,0,0,1,15,0)" style="display: block;"><tspan  dy="0"></tspan></text><text  id="v-103" font-size="40px" xml:space="preserve" display="none" y="404" font-weight="normal" fill="#000000" text-anchor="end" pointer-events="visible" font-family="Open Sans, Tahoma, Arial" transform="matrix(1,0,0,1,1225,0)"><tspan style="fill-opacity: 0; stroke-opacity: 0;"  dy="0">-</tspan></text><image  id="v-104" pointer-events="visible"></image></g></g><!--z-index:27--><g   id="j_3"  transform="translate(239,826)" style=""><g  id="v-13" style="opacity: 1;"><rect  id="v-14" rx="1" ry="1" stroke-width="2" pointer-events="visiblePainted" fill="#438dd5" stroke="#3c7fc0" stroke-dasharray="" width="450" height="300"></rect><text  id="v-15" font-size="33.599999999999994px" xml:space="preserve" y="81.14000000000001" font-weight="bold" text-anchor="middle" pointer-events="visible" font-family="Open Sans, Tahoma, Arial" fill="#ffffff" dominant-baseline="hanging" transform="matrix(1,0,0,1,225,0)"><tspan  dy="0">Administration Client</tspan><tspan dy="1.2em" x="0" >(Main)</tspan></text><text  id="v-16" font-size="16.799999999999997px" xml:space="preserve" y="163.06" text-anchor="middle" font-family="Open Sans, Tahoma, Arial" fill="#ffffff" dominant-baseline="hanging" transform="matrix(1,0,0,1,225,0)" style="display: block;"><tspan  dy="0">[Container: .Net]</tspan></text><text  id="v-17" font-size="24px" xml:space="preserve" y="194.86" text-anchor="middle" font-family="Open Sans, Tahoma, Arial" fill="#ffffff" dominant-baseline="hanging" transform="matrix(1,0,0,1,225,0)" style="display: block;"><tspan  dy="0">Provides the user interface.</tspan></text><g  id="v-18" color="#ffffff" transform="matrix(1,0,0,1,222.5,268)" display="none"><g ></g><g ></g><g ></g><g ></g></g><image  id="v-19"></image></g></g><!--z-index:28--><g   id="j_4"  transform="translate(989,826)" style=""><g  id="v-23" style="opacity: 1;"><rect  id="v-24" rx="1" ry="1" stroke-width="2" pointer-events="visiblePainted" fill="#ffffff" stroke="#2e3440" stroke-dasharray="" width="450" height="300"></rect><text  id="v-25" font-size="33.599999999999994px" xml:space="preserve" y="101.30000000000001" font-weight="bold" text-anchor="middle" pointer-events="visible" font-family="Open Sans, Tahoma, Arial" fill="#2e3440" dominant-baseline="hanging" transform="matrix(1,0,0,1,225,0)"><tspan  dy="0">Obsidian CA Server</tspan></text><text  id="v-26" font-size="16.799999999999997px" xml:space="preserve" y="142.9" text-anchor="middle" font-family="Open Sans, Tahoma, Arial" fill="#2e3440" dominant-baseline="hanging" transform="matrix(1,0,0,1,225,0)" style="display: block;"><tspan  dy="0">[Container: .Net]</tspan></text><text  id="v-27" font-size="24px" xml:space="preserve" y="174.7" text-anchor="middle" font-family="Open Sans, Tahoma, Arial" fill="#2e3440" dominant-baseline="hanging" transform="matrix(1,0,0,1,225,0)" style="display: block;"><tspan  dy="0">Central control + RFS</tspan></text><g  id="v-28" color="#2e3440" transform="matrix(1,0,0,1,222.5,268)" display="none"><g ></g><g ></g><g ></g><g ></g></g><image  id="v-29"></image></g></g><!--z-index:29--><g   id="j_5"  transform="translate(1739,826)" style=""><g  id="v-33" style="opacity: 1;"><rect  id="v-34" rx="1" ry="1" stroke-width="2" pointer-events="visiblePainted" fill="#438dd5" stroke="#3c7fc0" stroke-dasharray="" width="450" height="300"></rect><text  id="v-35" font-size="33.599999999999994px" xml:space="preserve" y="101.30000000000001" font-weight="bold" text-anchor="middle" pointer-events="visible" font-family="Open Sans, Tahoma, Arial" fill="#ffffff" dominant-baseline="hanging" transform="matrix(1,0,0,1,225,0)"><tspan  dy="0">Entrust XC HSM (Main)</tspan></text><text  id="v-36" font-size="16.799999999999997px" xml:space="preserve" y="142.9" text-anchor="middle" font-family="Open Sans, Tahoma, Arial" fill="#ffffff" dominant-baseline="hanging" transform="matrix(1,0,0,1,225,0)" style="display: block;"><tspan  dy="0">[Container: Native nCore]</tspan></text><text  id="v-37" font-size="24px" xml:space="preserve" y="174.7" text-anchor="middle" font-family="Open Sans, Tahoma, Arial" fill="#ffffff" dominant-baseline="hanging" transform="matrix(1,0,0,1,225,0)" style="display: block;"><tspan  dy="0">Provides Key Security</tspan></text><g  id="v-38" color="#ffffff" transform="matrix(1,0,0,1,222.5,268)" display="none"><g ></g><g ></g><g ></g><g ></g></g><image  id="v-39"></image></g></g><!--z-index:30--><g   id="j_2"  transform="translate(20,2270)"><g id="v-5"><text  id="v-6" font-size="24px" xml:space="preserve" y="0.8em" font-weight="normal" text-anchor="start" fill="#444444" pointer-events="none" display="block" font-family="Open Sans, Tahoma, Arial"><tspan  dy="0" display="block">Monday, 22 December 2025 at 11:43 Greenwich Mean Time</tspan></text></g></g><!--z-index:31--><g   id="j_1"  transform="translate(20,2224)"><g id="v-3"><text  id="v-4" font-size="36px" xml:space="preserve" y="0.8em" font-weight="normal" text-anchor="start" fill="#444444" pointer-events="none" display="block" font-family="Open Sans, Tahoma, Arial"><tspan  dy="0" display="block">Full HA Deployment</tspan></text></g></g><!--z-index:32--><g   id="j_17" ><path  stroke="#444444" d="M 689 976 L 989 976" id="v-144" stroke-width="2" stroke-dasharray="8 8" fill="none" style="opacity: 1;"></path><path  fill="black" stroke="black" d="M 0 0 0 0" transform="matrix(1,0,0,1,689,976)"></path><path  fill="#444444" stroke="#444444" d="M 20 0 L 0 10 L 20 20 z" id="v-146" transform="matrix(-1,1.2246468525851679e-16,-1.2246468525851679e-16,-1,989,986)" style="opacity: 1;"></path><path  d="M 689 976 L 989 976" id="v-145" fill="none" style="cursor: auto; pointer-events: visiblepainted;"></path><g ><g id="v-135"  label-idx="0" cursor="move" transform="matrix(1,0,0,1,839,962.5999755859375)" style="cursor: default; opacity: 1;"><rect joint-selector="rect" id="v-139" fill="#ffffff" rx="3" ry="3" pointer-events="none" width="124.54999542236328" height="62.40000343322754" transform="matrix(1,0,0,1,-62.29999923706055,-31.200000762939453)"></rect><text joint-selector="text" id="v-138" font-size="24px" xml:space="preserve" y="0.8em" fill="#444444" text-anchor="middle" pointer-events="none" font-family="Open Sans, Tahoma, Arial" font-weight="normal" transform="matrix(1,0,0,1,0,-24)"><tspan  dy="0">Admin</tspan><tspan dy="1.2em" x="0" >commands</tspan></text></g><g id="v-136"  label-idx="1" cursor="move" transform="matrix(1,0,0,1,839,1007.4000244140625)" style="cursor: default; opacity: 1;"><rect joint-selector="rect" id="v-141" fill="#ffffff" rx="3" ry="3"  pointer-events="none" width="122.04499053955078" height="23.519999504089355" transform="matrix(1,0,0,1,-61,-11.699999809265137)" style="display: block;"></rect><text joint-selector="text" id="v-140" font-size="16.799999999999997px" xml:space="preserve" y="0.8em" fill="#444444" text-anchor="middle" pointer-events="none"  font-family="Open Sans, Tahoma, Arial" font-weight="normal" transform="matrix(1,0,0,1,0,-6.699999809265137)" style="display: block;"><tspan  dy="0">[ASE-protected]</tspan></text></g><g id="v-137"  label-idx="2" cursor="move" transform="matrix(1,0,0,1,829,1015.7999877929688)" style="cursor: default; opacity: 1;"><rect joint-selector="rect" id="v-143" fill="#ffffff" rx="3" ry="3"  width="0" height="0" transform="matrix(1,0,0,1,0,0)" display="none"></rect><text joint-selector="text" id="v-142" fill="#000000" font-size="14" text-anchor="middle" pointer-events="none"></text></g></g><g  display="none" style="display: none;"></g><g  id="v-148" display="none"><g  id="v-133"><path  end="source" d="M 26 0 L 0 13 L 26 26 z"></path></g><g  id="v-134"><path  end="target" d="M 26 0 L 0 13 L 26 26 z"></path></g></g><g  id="v-147" display="none"><g  id="v-132" transform="translate(729, 976) "><g  event="remove"><circle r="11"></circle><path transform="scale(.8) translate(-16, -16)" d="M24.778,21.419 19.276,15.917 24.777,10.415 21.949,7.585 16.447,13.087 10.945,7.585 8.117,10.415 13.618,15.917 8.116,21.419 10.946,24.248 16.447,18.746 21.948,24.248z"></path><title>Remove link.</title></g><g  event="link:options"><circle r="11" transform="translate(25)"></circle><path fill="white" transform="scale(.55) translate(29, -16)" d="M31.229,17.736c0.064-0.571,0.104-1.148,0.104-1.736s-0.04-1.166-0.104-1.737l-4.377-1.557c-0.218-0.716-0.504-1.401-0.851-2.05l1.993-4.192c-0.725-0.91-1.549-1.734-2.458-2.459l-4.193,1.994c-0.647-0.347-1.334-0.632-2.049-0.849l-1.558-4.378C17.165,0.708,16.588,0.667,16,0.667s-1.166,0.041-1.737,0.105L12.707,5.15c-0.716,0.217-1.401,0.502-2.05,0.849L6.464,4.005C5.554,4.73,4.73,5.554,4.005,6.464l1.994,4.192c-0.347,0.648-0.632,1.334-0.849,2.05l-4.378,1.557C0.708,14.834,0.667,15.412,0.667,16s0.041,1.165,0.105,1.736l4.378,1.558c0.217,0.715,0.502,1.401,0.849,2.049l-1.994,4.193c0.725,0.909,1.549,1.733,2.459,2.458l4.192-1.993c0.648,0.347,1.334,0.633,2.05,0.851l1.557,4.377c0.571,0.064,1.148,0.104,1.737,0.104c0.588,0,1.165-0.04,1.736-0.104l1.558-4.377c0.715-0.218,1.399-0.504,2.049-0.851l4.193,1.993c0.909-0.725,1.733-1.549,2.458-2.458l-1.993-4.193c0.347-0.647,0.633-1.334,0.851-2.049L31.229,17.736zM16,20.871c-2.69,0-4.872-2.182-4.872-4.871c0-2.69,2.182-4.872,4.872-4.872c2.689,0,4.871,2.182,4.871,4.872C20.871,18.689,18.689,20.871,16,20.871z"></path><title>Link options.</title></g></g></g></g><!--z-index:33--><g   id="j_18" ><path  stroke="#444444" d="M 1439 976 L 1739 976" id="v-161" stroke-width="2" stroke-dasharray="8 8" fill="none" style="opacity: 1;"></path><path  fill="black" stroke="black" d="M 0 0 0 0" transform="matrix(1,0,0,1,1439,976)"></path><path  fill="#444444" stroke="#444444" d="M 20 0 L 0 10 L 20 20 z" id="v-163" transform="matrix(-1,1.2246468525851679e-16,-1.2246468525851679e-16,-1,1739,986)" style="opacity: 1;"></path><path  d="M 1439 976 L 1739 976" id="v-162" fill="none" style="cursor: auto; pointer-events: visiblepainted;"></path><g ><g id="v-155"  label-idx="0" cursor="move" transform="matrix(1,0,0,1,1589,976)" style="cursor: default; opacity: 1;"><rect joint-selector="rect" id="v-158" fill="#ffffff" rx="3" ry="3" pointer-events="none" width="124.54999542236328" height="62.40000343322754" transform="matrix(1,0,0,1,-62.29999923706055,-31.200000762939453)"></rect><text joint-selector="text" id="v-157" font-size="24px" xml:space="preserve" y="0.8em" fill="#444444" text-anchor="middle" pointer-events="none" font-family="Open Sans, Tahoma, Arial" font-weight="normal" transform="matrix(1,0,0,1,0,-24)"><tspan  dy="0">Crypto</tspan><tspan dy="1.2em" x="0" >commands</tspan></text></g><g id="v-156"  label-idx="1" cursor="move" transform="matrix(1,0,0,1,1579,1002.4000244140625)" style="cursor: default; opacity: 1;"><rect joint-selector="rect" id="v-160" fill="#ffffff" rx="3" ry="3"  width="0" height="0" transform="matrix(1,0,0,1,0,0)" display="none"></rect><text joint-selector="text" id="v-159" fill="#000000" font-size="14" text-anchor="middle" pointer-events="none"></text></g></g><g  display="none" style="display: none;"></g><g  id="v-165" display="none"><g  id="v-153"><path  end="source" d="M 26 0 L 0 13 L 26 26 z"></path></g><g  id="v-154"><path  end="target" d="M 26 0 L 0 13 L 26 26 z"></path></g></g><g  id="v-164" display="none"><g  id="v-152" transform="translate(1479, 976) "><g  event="remove"><circle r="11"></circle><path transform="scale(.8) translate(-16, -16)" d="M24.778,21.419 19.276,15.917 24.777,10.415 21.949,7.585 16.447,13.087 10.945,7.585 8.117,10.415 13.618,15.917 8.116,21.419 10.946,24.248 16.447,18.746 21.948,24.248z"></path><title>Remove link.</title></g><g  event="link:options"><circle r="11" transform="translate(25)"></circle><path fill="white" transform="scale(.55) translate(29, -16)" d="M31.229,17.736c0.064-0.571,0.104-1.148,0.104-1.736s-0.04-1.166-0.104-1.737l-4.377-1.557c-0.218-0.716-0.504-1.401-0.851-2.05l1.993-4.192c-0.725-0.91-1.549-1.734-2.458-2.459l-4.193,1.994c-0.647-0.347-1.334-0.632-2.049-0.849l-1.558-4.378C17.165,0.708,16.588,0.667,16,0.667s-1.166,0.041-1.737,0.105L12.707,5.15c-0.716,0.217-1.401,0.502-2.05,0.849L6.464,4.005C5.554,4.73,4.73,5.554,4.005,6.464l1.994,4.192c-0.347,0.648-0.632,1.334-0.849,2.05l-4.378,1.557C0.708,14.834,0.667,15.412,0.667,16s0.041,1.165,0.105,1.736l4.378,1.558c0.217,0.715,0.502,1.401,0.849,2.049l-1.994,4.193c0.725,0.909,1.549,1.733,2.459,2.458l4.192-1.993c0.648,0.347,1.334,0.633,2.05,0.851l1.557,4.377c0.571,0.064,1.148,0.104,1.737,0.104c0.588,0,1.165-0.04,1.736-0.104l1.558-4.377c0.715-0.218,1.399-0.504,2.049-0.851l4.193,1.993c0.909-0.725,1.733-1.549,2.458-2.458l-1.993-4.193c0.347-0.647,0.633-1.334,0.851-2.049L31.229,17.736zM16,20.871c-2.69,0-4.872-2.182-4.872-4.871c0-2.69,2.182-4.872,4.872-4.872c2.689,0,4.871,2.182,4.871,4.872C20.871,18.689,18.689,20.871,16,20.871z"></path><title>Link options.</title></g></g></g></g><!--z-index:34--><g   id="j_19" ><path  stroke="#444444" d="M 1364 1576 L 1814 1126" id="v-178" stroke-width="2" stroke-dasharray="8 8" fill="none" style="opacity: 1;"></path><path  fill="black" stroke="black" d="M 0 0 0 0" transform="matrix(0.7071067690849304,-0.7071067690849304,0.7071067690849304,0.7071067690849304,1364,1576)"></path><path  fill="#444444" stroke="#444444" d="M 20 0 L 0 10 L 20 20 z" id="v-180" transform="matrix(-0.7071067690849304,0.7071067690849304,-0.7071067690849304,-0.7071067690849304,1821.071044921875,1133.071044921875)" style="opacity: 1;"></path><path  d="M 1364 1576 L 1814 1126" id="v-179" fill="none" style="cursor: auto; pointer-events: visiblepainted;"></path><g ><g id="v-172"  label-idx="0" cursor="move" transform="matrix(1,0,0,1,1589,1351)" style="cursor: default; opacity: 1;"><rect joint-selector="rect" id="v-175" fill="#ffffff" rx="3" ry="3" pointer-events="none" width="124.54999542236328" height="62.40000343322754" transform="matrix(1,0,0,1,-62.29999923706055,-31.200000762939453)"></rect><text joint-selector="text" id="v-174" font-size="24px" xml:space="preserve" y="0.8em" fill="#444444" text-anchor="middle" pointer-events="none" font-family="Open Sans, Tahoma, Arial" font-weight="normal" transform="matrix(1,0,0,1,0,-24)"><tspan  dy="0">Crypto</tspan><tspan dy="1.2em" x="0" >commands</tspan></text></g><g id="v-173"  label-idx="1" cursor="move" transform="matrix(1,0,0,1,1579,1377.4000244140625)" style="cursor: default; opacity: 1;"><rect joint-selector="rect" id="v-177" fill="#ffffff" rx="3" ry="3"  width="0" height="0" transform="matrix(1,0,0,1,0,0)" display="none"></rect><text joint-selector="text" id="v-176" fill="#000000" font-size="14" text-anchor="middle" pointer-events="none"></text></g></g><g  display="none" style="display: none;"></g><g  id="v-182" display="none"><g  id="v-170"><path  end="source" d="M 26 0 L 0 13 L 26 26 z"></path></g><g  id="v-171"><path  end="target" d="M 26 0 L 0 13 L 26 26 z"></path></g></g><g  id="v-181" display="none"><g  id="v-169" transform="translate(1392.2842712474621, 1547.715728752538) "><g  event="remove"><circle r="11"></circle><path transform="scale(.8) translate(-16, -16)" d="M24.778,21.419 19.276,15.917 24.777,10.415 21.949,7.585 16.447,13.087 10.945,7.585 8.117,10.415 13.618,15.917 8.116,21.419 10.946,24.248 16.447,18.746 21.948,24.248z"></path><title>Remove link.</title></g><g  event="link:options"><circle r="11" transform="translate(25)"></circle><path fill="white" transform="scale(.55) translate(29, -16)" d="M31.229,17.736c0.064-0.571,0.104-1.148,0.104-1.736s-0.04-1.166-0.104-1.737l-4.377-1.557c-0.218-0.716-0.504-1.401-0.851-2.05l1.993-4.192c-0.725-0.91-1.549-1.734-2.458-2.459l-4.193,1.994c-0.647-0.347-1.334-0.632-2.049-0.849l-1.558-4.378C17.165,0.708,16.588,0.667,16,0.667s-1.166,0.041-1.737,0.105L12.707,5.15c-0.716,0.217-1.401,0.502-2.05,0.849L6.464,4.005C5.554,4.73,4.73,5.554,4.005,6.464l1.994,4.192c-0.347,0.648-0.632,1.334-0.849,2.05l-4.378,1.557C0.708,14.834,0.667,15.412,0.667,16s0.041,1.165,0.105,1.736l4.378,1.558c0.217,0.715,0.502,1.401,0.849,2.049l-1.994,4.193c0.725,0.909,1.549,1.733,2.459,2.458l4.192-1.993c0.648,0.347,1.334,0.633,2.05,0.851l1.557,4.377c0.571,0.064,1.148,0.104,1.737,0.104c0.588,0,1.165-0.04,1.736-0.104l1.558-4.377c0.715-0.218,1.399-0.504,2.049-0.851l4.193,1.993c0.909-0.725,1.733-1.549,2.458-2.458l-1.993-4.193c0.347-0.647,0.633-1.334,0.851-2.049L31.229,17.736zM16,20.871c-2.69,0-4.872-2.182-4.872-4.871c0-2.69,2.182-4.872,4.872-4.872c2.689,0,4.871,2.182,4.871,4.872C20.871,18.689,18.689,20.871,16,20.871z"></path><title>Link options.</title></g></g></g></g><!--z-index:35--><g   id="j_20" ><path  stroke="#444444" d="M 689 1726 L 989 1726" id="v-198" stroke-width="2" stroke-dasharray="8 8" fill="none" style="opacity: 1;"></path><path  fill="black" stroke="black" d="M 0 0 0 0" transform="matrix(1,0,0,1,689,1726)"></path><path  fill="#444444" stroke="#444444" d="M 20 0 L 0 10 L 20 20 z" id="v-200" transform="matrix(-1,1.2246468525851679e-16,-1.2246468525851679e-16,-1,989,1736)" style="opacity: 1;"></path><path  d="M 689 1726 L 989 1726" id="v-199" fill="none" style="cursor: auto; pointer-events: visiblepainted;"></path><g ><g id="v-189"  label-idx="0" cursor="move" transform="matrix(1,0,0,1,839,1712.5999755859375)" style="cursor: default; opacity: 1;"><rect joint-selector="rect" id="v-193" fill="#ffffff" rx="3" ry="3" pointer-events="none" width="128.14999389648438" height="62.40000343322754" transform="matrix(1,0,0,1,-64.0999984741211,-31.200000762939453)"></rect><text joint-selector="text" id="v-192" font-size="24px" xml:space="preserve" y="0.8em" fill="#444444" text-anchor="middle" pointer-events="none" font-family="Open Sans, Tahoma, Arial" font-weight="normal" transform="matrix(1,0,0,1,0,-24)"><tspan  dy="0">Admin</tspan><tspan dy="1.2em" x="0" >Commands</tspan></text></g><g id="v-190"  label-idx="1" cursor="move" transform="matrix(1,0,0,1,839,1757.4000244140625)" style="cursor: default; opacity: 1;"><rect joint-selector="rect" id="v-195" fill="#ffffff" rx="3" ry="3"  pointer-events="none" width="122.04499053955078" height="23.519999504089355" transform="matrix(1,0,0,1,-61,-11.699999809265137)" style="display: block;"></rect><text joint-selector="text" id="v-194" font-size="16.799999999999997px" xml:space="preserve" y="0.8em" fill="#444444" text-anchor="middle" pointer-events="none"  font-family="Open Sans, Tahoma, Arial" font-weight="normal" transform="matrix(1,0,0,1,0,-6.699999809265137)" style="display: block;"><tspan  dy="0">[ASE-protected]</tspan></text></g><g id="v-191"  label-idx="2" cursor="move" transform="matrix(1,0,0,1,829,1765.800048828125)" style="cursor: default; opacity: 1;"><rect joint-selector="rect" id="v-197" fill="#ffffff" rx="3" ry="3"  width="0" height="0" transform="matrix(1,0,0,1,0,0)" display="none"></rect><text joint-selector="text" id="v-196" fill="#000000" font-size="14" text-anchor="middle" pointer-events="none"></text></g></g><g  display="none" style="display: none;"></g><g  id="v-202" display="none"><g  id="v-187"><path  end="source" d="M 26 0 L 0 13 L 26 26 z"></path></g><g  id="v-188"><path  end="target" d="M 26 0 L 0 13 L 26 26 z"></path></g></g><g  id="v-201" display="none"><g  id="v-186" transform="translate(729, 1726) "><g  event="remove"><circle r="11"></circle><path transform="scale(.8) translate(-16, -16)" d="M24.778,21.419 19.276,15.917 24.777,10.415 21.949,7.585 16.447,13.087 10.945,7.585 8.117,10.415 13.618,15.917 8.116,21.419 10.946,24.248 16.447,18.746 21.948,24.248z"></path><title>Remove link.</title></g><g  event="link:options"><circle r="11" transform="translate(25)"></circle><path fill="white" transform="scale(.55) translate(29, -16)" d="M31.229,17.736c0.064-0.571,0.104-1.148,0.104-1.736s-0.04-1.166-0.104-1.737l-4.377-1.557c-0.218-0.716-0.504-1.401-0.851-2.05l1.993-4.192c-0.725-0.91-1.549-1.734-2.458-2.459l-4.193,1.994c-0.647-0.347-1.334-0.632-2.049-0.849l-1.558-4.378C17.165,0.708,16.588,0.667,16,0.667s-1.166,0.041-1.737,0.105L12.707,5.15c-0.716,0.217-1.401,0.502-2.05,0.849L6.464,4.005C5.554,4.73,4.73,5.554,4.005,6.464l1.994,4.192c-0.347,0.648-0.632,1.334-0.849,2.05l-4.378,1.557C0.708,14.834,0.667,15.412,0.667,16s0.041,1.165,0.105,1.736l4.378,1.558c0.217,0.715,0.502,1.401,0.849,2.049l-1.994,4.193c0.725,0.909,1.549,1.733,2.459,2.458l4.192-1.993c0.648,0.347,1.334,0.633,2.05,0.851l1.557,4.377c0.571,0.064,1.148,0.104,1.737,0.104c0.588,0,1.165-0.04,1.736-0.104l1.558-4.377c0.715-0.218,1.399-0.504,2.049-0.851l4.193,1.993c0.909-0.725,1.733-1.549,2.458-2.458l-1.993-4.193c0.347-0.647,0.633-1.334,0.851-2.049L31.229,17.736zM16,20.871c-2.69,0-4.872-2.182-4.872-4.871c0-2.69,2.182-4.872,4.872-4.872c2.689,0,4.871,2.182,4.871,4.872C20.871,18.689,18.689,20.871,16,20.871z"></path><title>Link options.</title></g></g></g></g><!--z-index:36--><g   id="j_21" ><path  stroke="#444444" d="M 1364 1126 L 1814 1576" id="v-215" stroke-width="2" stroke-dasharray="8 8" fill="none" style="opacity: 1;"></path><path  fill="black" stroke="black" d="M 0 0 0 0" transform="matrix(0.7071067690849304,0.7071067690849304,-0.7071067690849304,0.7071067690849304,1364,1126)"></path><path  fill="#444444" stroke="#444444" d="M 20 0 L 0 10 L 20 20 z" id="v-217" transform="matrix(-0.7071067690849304,-0.7071067690849304,0.7071067690849304,-0.7071067690849304,1806.928955078125,1583.071044921875)" style="opacity: 1;"></path><path  d="M 1364 1126 L 1814 1576" id="v-216" fill="none" style="cursor: auto; pointer-events: visiblepainted;"></path><g ><g id="v-209"  label-idx="0" cursor="move" transform="matrix(1,0,0,1,1589,1351)" style="cursor: default; opacity: 1;"><rect joint-selector="rect" id="v-212" fill="#ffffff" rx="3" ry="3" pointer-events="none" width="124.54999542236328" height="62.40000343322754" transform="matrix(1,0,0,1,-62.29999923706055,-31.200000762939453)"></rect><text joint-selector="text" id="v-211" font-size="24px" xml:space="preserve" y="0.8em" fill="#444444" text-anchor="middle" pointer-events="none" font-family="Open Sans, Tahoma, Arial" font-weight="normal" transform="matrix(1,0,0,1,0,-24)"><tspan  dy="0">Crypto</tspan><tspan dy="1.2em" x="0" >commands</tspan></text></g><g id="v-210"  label-idx="1" cursor="move" transform="matrix(1,0,0,1,1579,1377.4000244140625)" style="cursor: default; opacity: 1;"><rect joint-selector="rect" id="v-214" fill="#ffffff" rx="3" ry="3"  width="0" height="0" transform="matrix(1,0,0,1,0,0)" display="none"></rect><text joint-selector="text" id="v-213" fill="#000000" font-size="14" text-anchor="middle" pointer-events="none"></text></g></g><g  display="none" style="display: none;"></g><g  id="v-219" display="none"><g  id="v-207"><path  end="source" d="M 26 0 L 0 13 L 26 26 z"></path></g><g  id="v-208"><path  end="target" d="M 26 0 L 0 13 L 26 26 z"></path></g></g><g  id="v-218" display="none"><g  id="v-206" transform="translate(1392.2842712474621, 1154.284271247462) "><g  event="remove"><circle r="11"></circle><path transform="scale(.8) translate(-16, -16)" d="M24.778,21.419 19.276,15.917 24.777,10.415 21.949,7.585 16.447,13.087 10.945,7.585 8.117,10.415 13.618,15.917 8.116,21.419 10.946,24.248 16.447,18.746 21.948,24.248z"></path><title>Remove link.</title></g><g  event="link:options"><circle r="11" transform="translate(25)"></circle><path fill="white" transform="scale(.55) translate(29, -16)" d="M31.229,17.736c0.064-0.571,0.104-1.148,0.104-1.736s-0.04-1.166-0.104-1.737l-4.377-1.557c-0.218-0.716-0.504-1.401-0.851-2.05l1.993-4.192c-0.725-0.91-1.549-1.734-2.458-2.459l-4.193,1.994c-0.647-0.347-1.334-0.632-2.049-0.849l-1.558-4.378C17.165,0.708,16.588,0.667,16,0.667s-1.166,0.041-1.737,0.105L12.707,5.15c-0.716,0.217-1.401,0.502-2.05,0.849L6.464,4.005C5.554,4.73,4.73,5.554,4.005,6.464l1.994,4.192c-0.347,0.648-0.632,1.334-0.849,2.05l-4.378,1.557C0.708,14.834,0.667,15.412,0.667,16s0.041,1.165,0.105,1.736l4.378,1.558c0.217,0.715,0.502,1.401,0.849,2.049l-1.994,4.193c0.725,0.909,1.549,1.733,2.459,2.458l4.192-1.993c0.648,0.347,1.334,0.633,2.05,0.851l1.557,4.377c0.571,0.064,1.148,0.104,1.737,0.104c0.588,0,1.165-0.04,1.736-0.104l1.558-4.377c0.715-0.218,1.399-0.504,2.049-0.851l4.193,1.993c0.909-0.725,1.733-1.549,2.458-2.458l-1.993-4.193c0.347-0.647,0.633-1.334,0.851-2.049L31.229,17.736zM16,20.871c-2.69,0-4.872-2.182-4.872-4.871c0-2.69,2.182-4.872,4.872-4.872c2.689,0,4.871,2.182,4.871,4.872C20.871,18.689,18.689,20.871,16,20.871z"></path><title>Link options.</title></g></g></g></g><!--z-index:37--><g   id="j_22" ><path  stroke="#444444" d="M 1439 1726 L 1739 1726" id="v-232" stroke-width="2" stroke-dasharray="8 8" fill="none" style="opacity: 1;"></path><path  fill="black" stroke="black" d="M 0 0 0 0" transform="matrix(1,0,0,1,1439,1726)"></path><path  fill="#444444" stroke="#444444" d="M 20 0 L 0 10 L 20 20 z" id="v-234" transform="matrix(-1,1.2246468525851679e-16,-1.2246468525851679e-16,-1,1739,1736)" style="opacity: 1;"></path><path  d="M 1439 1726 L 1739 1726" id="v-233" fill="none" style="cursor: auto; pointer-events: visiblepainted;"></path><g ><g id="v-226"  label-idx="0" cursor="move" transform="matrix(1,0,0,1,1589,1726)" style="cursor: default; opacity: 1;"><rect joint-selector="rect" id="v-229" fill="#ffffff" rx="3" ry="3" pointer-events="none" width="124.54999542236328" height="62.40000343322754" transform="matrix(1,0,0,1,-62.29999923706055,-31.200000762939453)"></rect><text joint-selector="text" id="v-228" font-size="24px" xml:space="preserve" y="0.8em" fill="#444444" text-anchor="middle" pointer-events="none" font-family="Open Sans, Tahoma, Arial" font-weight="normal" transform="matrix(1,0,0,1,0,-24)"><tspan  dy="0">Crypto</tspan><tspan dy="1.2em" x="0" >commands</tspan></text></g><g id="v-227"  label-idx="1" cursor="move" transform="matrix(1,0,0,1,1579,1752.4000244140625)" style="cursor: default; opacity: 1;"><rect joint-selector="rect" id="v-231" fill="#ffffff" rx="3" ry="3"  width="0" height="0" transform="matrix(1,0,0,1,0,0)" display="none"></rect><text joint-selector="text" id="v-230" fill="#000000" font-size="14" text-anchor="middle" pointer-events="none"></text></g></g><g  display="none" style="display: none;"></g><g  id="v-236" display="none"><g  id="v-224"><path  end="source" d="M 26 0 L 0 13 L 26 26 z"></path></g><g  id="v-225"><path  end="target" d="M 26 0 L 0 13 L 26 26 z"></path></g></g><g  id="v-235" display="none"><g  id="v-223" transform="translate(1479, 1726) "><g  event="remove"><circle r="11"></circle><path transform="scale(.8) translate(-16, -16)" d="M24.778,21.419 19.276,15.917 24.777,10.415 21.949,7.585 16.447,13.087 10.945,7.585 8.117,10.415 13.618,15.917 8.116,21.419 10.946,24.248 16.447,18.746 21.948,24.248z"></path><title>Remove link.</title></g><g  event="link:options"><circle r="11" transform="translate(25)"></circle><path fill="white" transform="scale(.55) translate(29, -16)" d="M31.229,17.736c0.064-0.571,0.104-1.148,0.104-1.736s-0.04-1.166-0.104-1.737l-4.377-1.557c-0.218-0.716-0.504-1.401-0.851-2.05l1.993-4.192c-0.725-0.91-1.549-1.734-2.458-2.459l-4.193,1.994c-0.647-0.347-1.334-0.632-2.049-0.849l-1.558-4.378C17.165,0.708,16.588,0.667,16,0.667s-1.166,0.041-1.737,0.105L12.707,5.15c-0.716,0.217-1.401,0.502-2.05,0.849L6.464,4.005C5.554,4.73,4.73,5.554,4.005,6.464l1.994,4.192c-0.347,0.648-0.632,1.334-0.849,2.05l-4.378,1.557C0.708,14.834,0.667,15.412,0.667,16s0.041,1.165,0.105,1.736l4.378,1.558c0.217,0.715,0.502,1.401,0.849,2.049l-1.994,4.193c0.725,0.909,1.549,1.733,2.459,2.458l4.192-1.993c0.648,0.347,1.334,0.633,2.05,0.851l1.557,4.377c0.571,0.064,1.148,0.104,1.737,0.104c0.588,0,1.165-0.04,1.736-0.104l1.558-4.377c0.715-0.218,1.399-0.504,2.049-0.851l4.193,1.993c0.909-0.725,1.733-1.549,2.458-2.458l-1.993-4.193c0.347-0.647,0.633-1.334,0.851-2.049L31.229,17.736zM16,20.871c-2.69,0-4.872-2.182-4.872-4.871c0-2.69,2.182-4.872,4.872-4.872c2.689,0,4.871,2.182,4.871,4.872C20.871,18.689,18.689,20.871,16,20.871z"></path><title>Link options.</title></g></g></g></g><!--z-index:38--><g   id="j_23" ><path  stroke="#444444" d="M 1388 826 L 1790 480" id="v-252" stroke-width="2" stroke-dasharray="8 8" fill="none" style="opacity: 1;"></path><path  fill="black" stroke="black" d="M 0 0 0 0" transform="matrix(0.7576831579208374,-0.6526225209236145,0.6526225209236145,0.7576831579208374,1388.1500244140625,826)"></path><path  fill="#444444" stroke="#444444" d="M 20 0 L 0 10 L 20 20 z" id="v-254" transform="matrix(-0.7576833367347717,0.6526223421096802,-0.6526223421096802,-0.7576833367347717,1796.376220703125,487.5768127441406)" style="opacity: 1;"></path><path  d="M 1388 826 L 1790 480" id="v-253" fill="none" style="cursor: auto; pointer-events: visiblepainted;"></path><g ><g id="v-243"  label-idx="0" cursor="move" transform="matrix(1,0,0,1,1589,639.5999755859375)" style="cursor: default; opacity: 1;"><rect joint-selector="rect" id="v-247" fill="#ffffff" rx="3" ry="3" pointer-events="none" width="177.5500030517578" height="62.40000343322754" transform="matrix(1,0,0,1,-88.80000305175781,-31.200000762939453)"></rect><text joint-selector="text" id="v-246" font-size="24px" xml:space="preserve" y="0.8em" fill="#444444" text-anchor="middle" pointer-events="none" font-family="Open Sans, Tahoma, Arial" font-weight="normal" transform="matrix(1,0,0,1,0,-24)"><tspan  dy="0">Reads from and</tspan><tspan dy="1.2em" x="0" >writes to</tspan></text></g><g id="v-244"  label-idx="1" cursor="move" transform="matrix(1,0,0,1,1589,684.4000244140625)" style="cursor: default; opacity: 1;"><rect joint-selector="rect" id="v-249" fill="#ffffff" rx="3" ry="3"  pointer-events="none" width="57.644996643066406" height="23.519999504089355" transform="matrix(1,0,0,1,-28.799999237060547,-11.699999809265137)" style="display: block;"></rect><text joint-selector="text" id="v-248" font-size="16.799999999999997px" xml:space="preserve" y="0.8em" fill="#444444" text-anchor="middle" pointer-events="none"  font-family="Open Sans, Tahoma, Arial" font-weight="normal" transform="matrix(1,0,0,1,0,-6.699999809265137)" style="display: block;"><tspan  dy="0">[ODBC]</tspan></text></g><g id="v-245"  label-idx="2" cursor="move" transform="matrix(1,0,0,1,1579,692.7999877929688)" style="cursor: default; opacity: 1;"><rect joint-selector="rect" id="v-251" fill="#ffffff" rx="3" ry="3"  width="0" height="0" transform="matrix(1,0,0,1,0,0)" display="none"></rect><text joint-selector="text" id="v-250" fill="#000000" font-size="14" text-anchor="middle" pointer-events="none"></text></g></g><g  display="none" style="display: none;"></g><g  id="v-256" display="none"><g  id="v-241"><path  end="source" d="M 26 0 L 0 13 L 26 26 z"></path></g><g  id="v-242"><path  end="target" d="M 26 0 L 0 13 L 26 26 z"></path></g></g><g  id="v-255" display="none"><g  id="v-240" transform="translate(1418.3169662339803, 799.9062927438875) "><g  event="remove"><circle r="11"></circle><path transform="scale(.8) translate(-16, -16)" d="M24.778,21.419 19.276,15.917 24.777,10.415 21.949,7.585 16.447,13.087 10.945,7.585 8.117,10.415 13.618,15.917 8.116,21.419 10.946,24.248 16.447,18.746 21.948,24.248z"></path><title>Remove link.</title></g><g  event="link:options"><circle r="11" transform="translate(25)"></circle><path fill="white" transform="scale(.55) translate(29, -16)" d="M31.229,17.736c0.064-0.571,0.104-1.148,0.104-1.736s-0.04-1.166-0.104-1.737l-4.377-1.557c-0.218-0.716-0.504-1.401-0.851-2.05l1.993-4.192c-0.725-0.91-1.549-1.734-2.458-2.459l-4.193,1.994c-0.647-0.347-1.334-0.632-2.049-0.849l-1.558-4.378C17.165,0.708,16.588,0.667,16,0.667s-1.166,0.041-1.737,0.105L12.707,5.15c-0.716,0.217-1.401,0.502-2.05,0.849L6.464,4.005C5.554,4.73,4.73,5.554,4.005,6.464l1.994,4.192c-0.347,0.648-0.632,1.334-0.849,2.05l-4.378,1.557C0.708,14.834,0.667,15.412,0.667,16s0.041,1.165,0.105,1.736l4.378,1.558c0.217,0.715,0.502,1.401,0.849,2.049l-1.994,4.193c0.725,0.909,1.549,1.733,2.459,2.458l4.192-1.993c0.648,0.347,1.334,0.633,2.05,0.851l1.557,4.377c0.571,0.064,1.148,0.104,1.737,0.104c0.588,0,1.165-0.04,1.736-0.104l1.558-4.377c0.715-0.218,1.399-0.504,2.049-0.851l4.193,1.993c0.909-0.725,1.733-1.549,2.458-2.458l-1.993-4.193c0.347-0.647,0.633-1.334,0.851-2.049L31.229,17.736zM16,20.871c-2.69,0-4.872-2.182-4.872-4.871c0-2.69,2.182-4.872,4.872-4.872c2.689,0,4.871,2.182,4.871,4.872C20.871,18.689,18.689,20.871,16,20.871z"></path><title>Link options.</title></g></g></g></g><!--z-index:39--></g><g ></g><g ></g><g ></g></g></svg>